<svg width="108" height="108" viewBox="0 0 108 108" fill="none" xmlns="http://www.w3.org/2000/svg">
<circle cx="54" cy="54" r="54" fill="white"/>
<path d="M46.0401 75.1974C35.4551 78.7987 35.152 80.1738 25.5609 79.0482C18.7887 78.2535 11.9808 74.9268 11.9808 74.9268C11.9808 74.9268 20.8588 82.1926 30.114 82.7751C37.4405 83.2361 43.0441 79.7499 49.7223 77.5637C59.5431 74.3495 66.3686 73.9802 72.7969 73.9645C83.4171 73.9358 100.539 78.4969 100.539 78.4969C100.539 78.4969 92.7479 74.6413 81.9634 72.145C69.9519 69.3646 56.6252 71.5961 46.0401 75.1974Z" fill="#5663A0"/>
<path d="M93.3708 55.8467L27.2479 67.0966C30.658 68.2527 33.0554 71.5797 32.9129 75.4111C32.8837 76.1957 32.7474 76.9496 32.5228 77.6636C32.7244 77.5677 42.4381 72.9614 55.9189 70.1602C67.8667 67.6772 77.0334 68.8273 79.11 69.1481C81.7425 62.8905 86.9575 58.0285 93.3708 55.8467Z" fill="#F89C0E"/>
<path d="M50.9724 40.5181C53.2112 51.424 51.1518 58.3615 49.4887 61.8202C53.8634 57.6798 59.6332 54.959 66.1079 54.4651C69.2815 54.223 72.3691 54.5372 75.2743 55.3218C74.9075 52.5893 73.0846 42.7212 65.1899 33.4728C53.1493 19.3663 38.6997 20.0488 38.6997 20.0488C38.6997 20.0488 47.5774 23.9828 50.9724 40.5181Z" fill="#6C78AF"/>
<path d="M45.7368 32.3319C41.7943 23.5274 34.6632 20.6699 32.1362 19.9101C36.6626 26.3629 39.6401 34.3902 40.3154 43.242C40.84 50.1185 39.9153 56.7152 37.8389 62.629C40.4858 59.476 44.3559 57.3474 48.7926 57.0089C48.9774 56.9948 49.1608 56.9858 49.3426 56.977C49.6362 55.1645 51.0735 44.2514 45.7368 32.3319Z" fill="#6C78AF" fill-opacity="0.75"/>
</svg>
