<?xml version="1.0" encoding="UTF-8" standalone="no"?>
<!-- Created with Inkscape (http://www.inkscape.org/) -->

<svg
   xmlns:dc="http://purl.org/dc/elements/1.1/"
   xmlns:cc="http://creativecommons.org/ns#"
   xmlns:rdf="http://www.w3.org/1999/02/22-rdf-syntax-ns#"
   xmlns:svg="http://www.w3.org/2000/svg"
   xmlns="http://www.w3.org/2000/svg"
   xmlns:sodipodi="http://sodipodi.sourceforge.net/DTD/sodipodi-0.dtd"
   xmlns:inkscape="http://www.inkscape.org/namespaces/inkscape"
   width="165"
   height="28.000004"
   viewBox="0 0 43.656247 7.4083345"
   version="1.1"
   id="svg4612"
   inkscape:version="0.92.1 r15371"
   sodipodi:docname="label.svg"
   inkscape:export-filename="/home/nijel/phpmyadmin/data/logo/label.png"
   inkscape:export-xdpi="96"
   inkscape:export-ydpi="96">
  <defs
     id="defs4606" />
  <sodipodi:namedview
     id="base"
     pagecolor="#ffffff"
     bordercolor="#666666"
     borderopacity="1.0"
     inkscape:pageopacity="0.0"
     inkscape:pageshadow="2"
     inkscape:zoom="3.2796268"
     inkscape:cx="93.806469"
     inkscape:cy="42.474899"
     inkscape:document-units="mm"
     inkscape:current-layer="layer1"
     showgrid="false"
     width="70mm"
     inkscape:window-width="1366"
     inkscape:window-height="704"
     inkscape:window-x="0"
     inkscape:window-y="27"
     inkscape:window-maximized="1"
     units="px"
     fit-margin-top="1.37767"
     fit-margin-left="0.66061"
     fit-margin-right="0.66061"
     fit-margin-bottom="1.37767" />
  <metadata
     id="metadata4609">
    <rdf:RDF>
      <cc:Work
         rdf:about="">
        <dc:format>image/svg+xml</dc:format>
        <dc:type
           rdf:resource="http://purl.org/dc/dcmitype/StillImage" />
        <dc:title></dc:title>
      </cc:Work>
    </rdf:RDF>
  </metadata>
  <g
     inkscape:label="Vrstva 1"
     inkscape:groupmode="layer"
     id="layer1"
     transform="translate(-17.380006,-279.8442)">
    <g
       id="g3771"
       transform="matrix(0.70163041,0,0,0.73676166,16.45095,69.898082)">
      <desc
         id="desc3790">Shadow</desc>
      <path
         d="m 3.5345494,287.9526 h 2.5450191 c 0.7647304,0 1.2971829,0.21739 1.59751,0.65202 0.3006318,0.43477 0.3365704,1.04057 0.1075113,1.81749 -0.09397,0.31872 -0.2250596,0.61124 -0.3931925,0.87765 -0.1683614,0.26642 -0.3761468,0.50984 -0.6238133,0.73005 -0.2949754,0.26499 -0.6108625,0.45486 -0.9481758,0.56943 -0.3372371,0.11456 -0.7566741,0.17185 -1.2583302,0.17185 H 3.4230385 l -0.5190617,1.74266 H 1.5732531 Z m 1.0144728,1.03798 -0.8196954,2.75206 h 0.8075635 c 0.5352141,0 0.9466331,-0.10877 1.2338759,-0.32659 0.2871667,-0.21784 0.505808,-0.5803 0.6560192,-1.08753 0.144707,-0.48915 0.1448403,-0.83434 7.428e-4,-1.03588 -0.1440405,-0.20133 -0.4677363,-0.30206 -0.9708779,-0.30206 H 4.5490222"
         style="fill:#231f20;fill-opacity:1;fill-rule:nonzero;stroke:none;stroke-width:0.01904541"
         id="path46"
         inkscape:connector-curvature="0" />
      <path
         d="m 9.829286,286.20995 h 1.311753 l -0.51057,1.74265 h 1.168303 c 0.735629,0 1.2274,0.1392 1.475886,0.41736 0.248409,0.27833 0.282996,0.72672 0.103321,1.34554 l -0.887173,3.05559 h -1.338683 l 0.847521,-2.90814 c 0.09643,-0.33061 0.09947,-0.55544 0.0094,-0.67462 -0.09001,-0.11904 -0.303165,-0.17871 -0.638973,-0.17871 h -1.049364 l -1.1023297,3.76147 H 7.8994527 l 1.9298333,-6.56114"
         style="fill:#231f20;fill-opacity:1;fill-rule:nonzero;stroke:none;stroke-width:0.01904541"
         id="path48"
         inkscape:connector-curvature="0" />
      <path
         d="m 15.035158,287.9526 h 2.545096 c 0.764635,0 1.299106,0.21739 1.60368,0.65202 0.304727,0.43477 0.346455,1.04057 0.124843,1.81749 -0.091,0.31872 -0.219251,0.61124 -0.384851,0.87765 -0.165828,0.26642 -0.371385,0.50984 -0.616823,0.73005 -0.292385,0.26499 -0.606635,0.45486 -0.942824,0.56943 -0.336114,0.11456 -0.754979,0.17185 -1.256616,0.17185 h -1.13804 l -0.502475,1.74266 H 13.13635 Z m 1.024282,1.03798 -0.793432,2.75206 h 0.807639 c 0.535291,0 0.945586,-0.10877 1.230677,-0.32659 0.285071,-0.21784 0.500304,-0.5803 0.645677,-1.08753 0.140003,-0.48915 0.136956,-0.83434 -0.0092,-1.03588 -0.145887,-0.20133 -0.470612,-0.30206 -0.973696,-0.30206 H 16.05944"
         style="fill:#231f20;fill-opacity:1;fill-rule:nonzero;stroke:none;stroke-width:0.01904541"
         id="path50"
         inkscape:connector-curvature="0" />
      <path
         d="m 21.468279,286.20995 h 2.097852 l 0.319201,5.03477 3.151444,-5.03477 h 2.089853 l -1.824741,6.56114 H 25.89367 l 1.543059,-5.11057 -3.180773,5.11057 h -1.525919 l -0.346055,-5.16412 -1.319466,5.16412 H 19.60181 l 1.866469,-6.56114"
         style="fill:#231f20;fill-opacity:1;fill-rule:nonzero;stroke:none;stroke-width:0.01904541"
         id="path52"
         inkscape:connector-curvature="0" />
      <path
         d="m 31.019171,291.70931 h 1.063877 l 1.030737,-3.75671 h 1.318704 l -1.281565,4.68912 c -0.174266,0.6375 -0.458423,1.10969 -0.852473,1.41658 -0.394049,0.30673 -0.910751,0.46021 -1.549725,0.46021 h -2.599698 l 0.270445,-0.97608 h 2.369439 c 0.254447,0 0.466041,-0.0591 0.634974,-0.17707 0.168933,-0.11821 0.284158,-0.28931 0.345674,-0.51354 l 0.02209,-0.0807 h -1.171674 c -0.749437,0 -1.244427,-0.1421 -1.484589,-0.42629 -0.240163,-0.28418 -0.26816,-0.75809 -0.08418,-1.4217 l 0.823142,-2.9705 h 1.303659 l -0.792861,2.8723 c -0.100179,0.36335 -0.109511,0.60157 -0.02761,0.71471 0.0817,0.11315 0.30225,0.1697 0.661637,0.1697"
         style="fill:#231f20;fill-opacity:1;fill-rule:nonzero;stroke:none;stroke-width:0.01904541"
         id="path54"
         inkscape:connector-curvature="0" />
      <path
         d="m 38.173008,286.20995 h 1.515824 l 1.146343,6.56114 h -1.598481 l -0.207595,-1.56172 h -2.96537 l -1.032261,1.56172 h -1.524585 z m 0.350816,1.30282 -1.678852,2.5253 h 2.030812 z"
         style="fill:#231f20;fill-opacity:1;fill-rule:nonzero;stroke:none;stroke-width:0.01904541"
         id="path56"
         inkscape:connector-curvature="0" />
      <path
         d="m 45.826025,292.77109 h -2.543134 c -0.768482,0 -1.310324,-0.21731 -1.625144,-0.652 -0.314631,-0.43462 -0.367958,-1.04051 -0.160553,-1.8175 0.08494,-0.31856 0.207976,-0.61109 0.368719,-0.8775 0.160553,-0.26648 0.361482,-0.50985 0.602406,-0.7302 0.286824,-0.26492 0.597455,-0.45471 0.932083,-0.56935 0.334437,-0.11465 0.750198,-0.17194 1.247093,-0.17194 h 1.131107 l 0.459947,-1.74265 h 1.311847 z m -1.046164,-1.03321 0.725058,-2.7473 h -0.798193 c -0.535176,0 -0.943509,0.10802 -1.225191,0.32385 -0.281682,0.21597 -0.489657,0.5756 -0.623356,1.07882 -0.129699,0.48848 -0.118653,0.83465 0.03314,1.03864 0.151982,0.204 0.479182,0.30599 0.98141,0.30599 h 0.907133"
         style="fill:#231f20;fill-opacity:1;fill-rule:nonzero;stroke:none;stroke-width:0.01904541"
         id="path58"
         inkscape:connector-curvature="0" />
      <path
         d="m 48.238317,287.9526 h 5.063603 c 0.73401,0 1.227477,0.13846 1.4804,0.41506 0.253113,0.27675 0.300155,0.72603 0.141126,1.34784 l -0.782195,3.05559 h -1.33375 l 0.742961,-2.89035 c 0.09104,-0.35436 0.09561,-0.5881 0.01371,-0.70135 -0.08189,-0.11315 -0.295585,-0.16977 -0.641068,-0.16977 h -0.740105 l -0.971887,3.76147 h -1.353748 l 0.976077,-3.76147 h -1.542107 l -0.981029,3.76147 h -1.33375 l 1.261759,-4.81849"
         style="fill:#231f20;fill-opacity:1;fill-rule:nonzero;stroke:none;stroke-width:0.01904541"
         id="path60"
         inkscape:connector-curvature="0" />
      <path
         d="m 58.075461,287.40505 h -1.382125 l 0.304727,-1.1951 h 1.380792 z m -1.362127,5.36604 h -1.38822 l 1.228619,-4.81849 h 1.382697 l -1.223096,4.81849"
         style="fill:#231f20;fill-opacity:1;fill-rule:nonzero;stroke:none;stroke-width:0.01904541"
         id="path62"
         inkscape:connector-curvature="0" />
      <path
         d="m 59.07706,287.9526 h 2.480664 c 0.749818,0 1.251093,0.13623 1.504016,0.40837 0.253304,0.2723 0.301299,0.72381 0.144174,1.35453 l -0.761055,3.05559 h -1.323846 l 0.72544,-2.89928 c 0.09008,-0.36038 0.09047,-0.59414 0.0015,-0.70127 -0.08913,-0.10727 -0.308155,-0.16092 -0.657257,-0.16092 h -1.061401 l -0.947128,3.76147 h -1.323846 l 1.218716,-4.81849"
         style="fill:#231f20;fill-opacity:1;fill-rule:nonzero;stroke:none;stroke-width:0.01904541"
         id="path64"
         inkscape:connector-curvature="0" />
    </g>
    <g
       id="g3772"
       transform="matrix(0.70163041,0,0,0.73676166,16.45095,69.898082)">
      <desc
         id="desc3791">phpMyAdmin</desc>
      <path
         d="m 3.2405454,287.38124 h 2.5413053 c 0.7635876,0 1.3052771,0.21738 1.6251067,0.65202 0.3196772,0.43477 0.3827556,1.04056 0.1891781,1.81748 -0.079381,0.31873 -0.1968534,0.61125 -0.3524925,0.87765 -0.1556962,0.26643 -0.3518068,0.50985 -0.5883889,0.73005 -0.2815864,0.265 -0.5874366,0.45486 -0.9177602,0.56944 -0.3303045,0.11456 -0.7449231,0.17185 -1.2437414,0.17185 H 3.3618114 l -0.4341021,1.74266 H 1.6060619 Z m 1.0629625,1.03797 -0.6855586,2.75207 h 0.8038496 c 0.5328334,0 0.9372437,-0.10877 1.2134021,-0.32659 0.275949,-0.21785 0.4771066,-0.5803 0.603511,-1.08754 0.1218525,-0.48914 0.1060829,-0.83434 -0.046871,-1.03588 -0.153106,-0.20132 -0.4806681,-0.30206 -0.9827812,-0.30206 H 4.3035079"
         style="fill:#6c78af;fill-opacity:1;fill-rule:nonzero;stroke:none;stroke-width:0.01904541"
         id="path66"
         inkscape:connector-curvature="0" />
      <path
         d="m 9.4483778,285.63858 h 1.3116762 l -0.434102,1.74266 h 1.166912 c 0.73443,0 1.231248,0.1392 1.490666,0.41736 0.259493,0.27833 0.312249,0.72672 0.158096,1.34554 l -0.761226,3.05559 h -1.331541 l 0.724468,-2.90814 c 0.08245,-0.33061 0.07618,-0.55544 -0.01866,-0.67463 -0.09487,-0.11903 -0.309926,-0.1787 -0.644935,-0.1787 h -1.046907 l -0.9370153,3.76147 h -1.311905 l 1.6344771,-6.56115"
         style="fill:#6c78af;fill-opacity:1;fill-rule:nonzero;stroke:none;stroke-width:0.01904541"
         id="path68"
         inkscape:connector-curvature="0" />
      <path
         d="m 14.72449,287.38124 h 2.541286 c 0.763759,0 1.305277,0.21738 1.625107,0.65202 0.319753,0.43477 0.382774,1.04056 0.189273,1.81748 -0.07938,0.31873 -0.19693,0.61125 -0.352416,0.87765 -0.155792,0.26643 -0.352055,0.50985 -0.588485,0.73005 -0.281662,0.265 -0.587493,0.45486 -0.917817,0.56944 -0.330247,0.11456 -0.744847,0.17185 -1.243837,0.17185 h -1.131773 l -0.434102,1.74266 h -1.32158 z m 1.063114,1.03797 -0.685558,2.75207 h 0.803849 c 0.532815,0 0.937168,-0.10877 1.213174,-0.32659 0.276006,-0.21785 0.477259,-0.5803 0.603644,-1.08754 0.121796,-0.48914 0.106102,-0.83434 -0.04695,-1.03588 -0.153106,-0.20132 -0.480668,-0.30206 -0.982609,-0.30206 h -0.905553"
         style="fill:#6c78af;fill-opacity:1;fill-rule:nonzero;stroke:none;stroke-width:0.01904541"
         id="path70"
         inkscape:connector-curvature="0" />
      <path
         d="m 21.087371,285.63858 h 2.097852 l 0.481087,5.03477 2.989558,-5.03477 h 2.089852 l -1.634286,6.56115 h -1.4006 l 1.388601,-5.11057 -3.017364,5.11057 h -1.517729 l -0.513464,-5.16413 -1.143106,5.16413 h -1.454821 l 1.63442,-6.56115"
         style="fill:#f89c0e;fill-opacity:1;fill-rule:nonzero;stroke:none;stroke-width:0.01904541"
         id="path72"
         inkscape:connector-curvature="0" />
      <path
         d="m 30.782246,291.13795 h 1.059115 l 0.935701,-3.75671 h 1.31661 l -1.168055,4.68911 c -0.158649,0.63751 -0.430427,1.1097 -0.814954,1.41659 -0.384526,0.30673 -0.894182,0.46021 -1.528775,0.46021 h -2.581795 l 0.24321,-0.97608 h 2.355155 c 0.252733,0 0.461661,-0.0591 0.626784,-0.17707 0.164934,-0.11821 0.275587,-0.28932 0.331391,-0.51354 l 0.02019,-0.0807 h -1.165389 c -0.745437,0 -1.24138,-0.1421 -1.487637,-0.42629 -0.246448,-0.28418 -0.286824,-0.75809 -0.1217,-1.42171 l 0.740105,-2.97049 h 1.301753 l -0.715536,2.8723 c -0.09046,0.36334 -0.0937,0.60156 -0.0091,0.71471 0.08437,0.11315 0.305298,0.1697 0.662971,0.1697"
         style="fill:#f89c0e;fill-opacity:1;fill-rule:nonzero;stroke:none;stroke-width:0.01904541"
         id="path74"
         inkscape:connector-curvature="0" />
      <path
         d="m 37.7921,285.63858 h 1.516014 l 1.263282,6.56115 h -1.58991 L 38.746465,290.638 h -2.952991 l -0.994551,1.56173 h -1.516205 z m 0.378051,1.30283 -1.622859,2.5253 h 2.024336 z"
         style="fill:#f89c0e;fill-opacity:1;fill-rule:nonzero;stroke:none;stroke-width:0.01904541"
         id="path76"
         inkscape:connector-curvature="0" />
      <path
         d="m 45.535011,292.19973 h -2.52923 c -0.764293,0 -1.306515,-0.21731 -1.626859,-0.652 -0.320154,-0.43462 -0.383194,-1.04051 -0.189692,-1.81751 0.07942,-0.31855 0.196929,-0.61109 0.352721,-0.87749 0.155791,-0.26649 0.351959,-0.50985 0.588693,-0.7302 0.281682,-0.26493 0.588694,-0.45471 0.920846,-0.56935 0.332152,-0.11465 0.746389,-0.17194 1.242522,-0.17194 h 1.129584 l 0.434044,-1.74266 h 1.311848 z m -1.054354,-1.03322 0.684492,-2.7473 h -0.796288 c -0.534034,0 -0.939701,0.10803 -1.217383,0.32385 -0.277301,0.21598 -0.478992,0.57561 -0.604311,1.07883 -0.1217,0.48848 -0.105321,0.83465 0.04914,1.03864 0.154459,0.204 0.481659,0.30598 0.981601,0.30598 h 0.902752"
         style="fill:#f89c0e;fill-opacity:1;fill-rule:nonzero;stroke:none;stroke-width:0.01904541"
         id="path78"
         inkscape:connector-curvature="0" />
      <path
         d="m 47.879882,287.38124 h 5.055985 c 0.733058,0 1.226905,0.13846 1.481352,0.41506 0.254256,0.27675 0.304155,0.72603 0.149316,1.34784 l -0.761245,3.05559 h -1.326513 l 0.719917,-2.89035 c 0.08837,-0.35436 0.09123,-0.58811 0.0088,-0.70135 -0.08285,-0.11315 -0.296347,-0.16977 -0.640878,-0.16977 H 51.828035 L 50.891,292.19973 h -1.34632 l 0.937035,-3.76147 h -1.538679 l -0.937034,3.76147 H 46.67945 l 1.200432,-4.81849"
         style="fill:#f89c0e;fill-opacity:1;fill-rule:nonzero;stroke:none;stroke-width:0.01904541"
         id="path80"
         inkscape:connector-curvature="0" />
      <path
         d="m 57.700267,286.83368 h -1.380792 l 0.297679,-1.1951 h 1.380793 z m -1.336798,5.36605 h -1.380792 l 1.200242,-4.81849 h 1.380792 l -1.200242,4.81849"
         style="fill:#f89c0e;fill-opacity:1;fill-rule:nonzero;stroke:none;stroke-width:0.01904541"
         id="path82"
         inkscape:connector-curvature="0" />
      <path
         d="m 58.702627,287.38124 h 2.477236 c 0.748675,0 1.249379,0.13623 1.501921,0.40837 0.252542,0.27229 0.300346,0.7238 0.143222,1.35453 l -0.761055,3.05559 h -1.316799 l 0.722392,-2.89928 c 0.0897,-0.36038 0.09009,-0.59414 0.0011,-0.70128 -0.08894,-0.10726 -0.307584,-0.16091 -0.655734,-0.16091 h -1.058925 l -0.937034,3.76147 h -1.316609 l 1.200242,-4.81849"
         style="fill:#f89c0e;fill-opacity:1;fill-rule:nonzero;stroke:none;stroke-width:0.01904541"
         id="path84"
         inkscape:connector-curvature="0" />
    </g>
  </g>
</svg>
