<?xml version="1.0" encoding="UTF-8" standalone="no"?>
<!-- Created with Inkscape (http://www.inkscape.org/) -->

<svg
   xmlns:dc="http://purl.org/dc/elements/1.1/"
   xmlns:cc="http://creativecommons.org/ns#"
   xmlns:rdf="http://www.w3.org/1999/02/22-rdf-syntax-ns#"
   xmlns:svg="http://www.w3.org/2000/svg"
   xmlns="http://www.w3.org/2000/svg"
   xmlns:sodipodi="http://sodipodi.sourceforge.net/DTD/sodipodi-0.dtd"
   xmlns:inkscape="http://www.inkscape.org/namespaces/inkscape"
   width="64"
   height="64"
   id="svg2"
   version="1.1"
   inkscape:version="0.48.0 r9654"
   sodipodi:docname="logo_64px.svg"
   inkscape:export-filename="/home/roccivic/Desktop/drawing.png"
   inkscape:export-xdpi="90"
   inkscape:export-ydpi="90">
  <defs
     id="defs4">
    <filter
       inkscape:collect="always"
       id="filter4131">
      <feGaussianBlur
         inkscape:collect="always"
         stdDeviation="0.49040371"
         id="feGaussianBlur4133" />
    </filter>
    <filter
       inkscape:collect="always"
       id="filter3868">
      <feGaussianBlur
         inkscape:collect="always"
         stdDeviation="0.74436907"
         id="feGaussianBlur3870" />
    </filter>
    <filter
       inkscape:collect="always"
       id="filter3954">
      <feGaussianBlur
         inkscape:collect="always"
         stdDeviation="0.48861127"
         id="feGaussianBlur3956" />
    </filter>
  </defs>
  <sodipodi:namedview
     id="base"
     pagecolor="#ffffff"
     bordercolor="#666666"
     borderopacity="1.0"
     inkscape:pageopacity="1"
     inkscape:pageshadow="2"
     inkscape:zoom="12.21875"
     inkscape:cx="32"
     inkscape:cy="32"
     inkscape:document-units="px"
     inkscape:current-layer="layer2"
     showgrid="true"
     inkscape:window-width="1280"
     inkscape:window-height="994"
     inkscape:window-x="0"
     inkscape:window-y="0"
     inkscape:window-maximized="1"
     showguides="true"
     inkscape:guide-bbox="true"
     inkscape:snap-global="false">
    <inkscape:grid
       type="xygrid"
       id="grid3984"
       empspacing="5"
       visible="true"
       enabled="true"
       snapvisiblegridlinesonly="true" />
  </sodipodi:namedview>
  <metadata
     id="metadata7">
    <rdf:RDF>
      <cc:Work
         rdf:about="">
        <dc:format>image/svg+xml</dc:format>
        <dc:type
           rdf:resource="http://purl.org/dc/dcmitype/StillImage" />
        <dc:title />
      </cc:Work>
    </rdf:RDF>
  </metadata>
  <g
     inkscape:groupmode="layer"
     id="layer2"
     inkscape:label="Layer">
    <path
       style="fill:#000000;fill-opacity:1;stroke:none;filter:url(#filter3954);opacity:0.7"
       d="m 18.007435,49.547026 c 0.02389,-0.01 0.05243,-0.01 0.06342,0 0.011,0.011 -0.0085,0.019 -0.04343,0.017 -0.03855,0 -0.04639,-0.01 -0.01999,-0.02 z m -0.292356,-0.1717 c -1.033321,-0.4635 -2.275242,-1.4837 -2.840904,-2.3338 -0.626131,-0.9409 -0.925077,-1.8592 -1.008379,-3.0974 -0.0069,-0.1027 -0.01343,-0.072 -0.02104,0.099 l -0.01102,0.2482 -0.02225,-0.2978 c -0.02229,-0.2984 -0.01672,-0.3605 0.02627,-0.2927 0.02053,0.032 15.197971,-1.893 44.728512,-5.6743 2.69358,-0.3449 4.903491,-0.6215 4.910913,-0.6146 0.02966,0.028 -0.450132,0.2192 -0.735649,0.2941 -0.386863,0.1013 -0.553034,0.1296 -1.362557,0.2316 -3.690285,0.4653 -6.59233,1.6829 -9.070798,3.8057 -1.354398,1.1601 -2.645096,2.7514 -3.602928,4.4421 l -0.264726,0.4673 -0.312856,0.1046 c -0.410992,0.1374 -0.78318,0.3268 -1.114229,0.567 -0.198601,0.1441 -0.316864,0.2052 -0.452304,0.2336 -0.179054,0.038 -0.200083,0.034 -0.889261,-0.1706 -1.809085,-0.5359 -4.231242,-1.0733 -6.496737,-1.4415 -7.463864,-1.2128 -13.280265,-0.7894 -17.80278,1.2961 -0.47742,0.2202 -1.299517,0.6614 -1.663448,0.8929 -0.0959,0.061 -0.182663,0.1108 -0.1928,0.1108 -0.03666,0 -0.531325,0.3433 -0.745186,0.5172 -0.120398,0.098 -0.340373,0.3045 -0.488832,0.4591 -0.14846,0.1547 -0.273314,0.2808 -0.277454,0.2804 -0.0041,-4e-4 -0.134434,-0.058 -0.289543,-0.1273 z m -3.901342,-7.9653 c 0.0016,-0.039 0.0094,-0.046 0.01999,-0.02 0.0096,0.024 0.0084,0.052 -0.0026,0.063 -0.011,0.011 -0.01882,-0.01 -0.01738,-0.043 z m 0.955489,-2.6864 c 6.649675,-20.12159 9.450346,-28.56946 9.458133,-28.52902 0.0094,0.0487 -1.892528,29.68012 -1.929598,30.06272 l -0.0195,0.2012 -4.126022,0.4537 c -2.269312,0.2495 -4.157493,0.4602 -4.195958,0.4683 -0.06246,0.013 0.02443,-0.2709 0.812948,-2.6569 z m 8.225812,2.0687 c 0.01199,-0.1684 0.434246,-7.3085 0.938358,-15.8669 0.561752,-9.53699 0.929959,-15.5742106 0.951163,-15.5954206 0.02407,-0.0241 0.04502,-0.0216 0.06886,0.008 0.02391,0.0298 -0.24899,4.8312506 -0.903332,15.8932206 -0.515675,8.7177 -0.938242,15.8541 -0.939037,15.8587 -7.94e-4,0 -0.03213,0.01 -0.06963,0.01 -0.0655,0 -0.06732,-0.012 -0.04639,-0.3061 z m 1.593465,-1.5388 c 3.521146,-5.6839 6.378939,-11.1542 8.967826,-17.16569 2.494316,-5.792 4.660733,-12.0934405 6.234349,-18.1337706 0.257568,-0.98867 0.255105,-0.98 0.2586,-0.90999 0.0043,0.0868 -2.243948,35.7787506 -2.254174,35.7855506 -0.01385,0.01 -13.226589,0.7832 -13.336513,0.7813 l -0.09045,0 0.220367,-0.3558 z m 14.042242,-0.3474 c 8.9e-4,-0.1138 0.444683,-8.5531 0.986207,-18.75409 0.541523,-10.2011105 0.972628,-18.5523705 0.958011,-18.5584305 -0.07272,-0.0302 -0.01146,-0.0717 0.105784,-0.0717 0.124588,0 0.180374,0.0447 0.09241,0.074 -0.02645,0.009 -0.04449,0.12629 -0.05338,0.34755 -0.01083,0.2695899 -0.0031,0.3489699 0.03995,0.4104399 0.06895,0.0984 0.06728,0.1163 -0.0128,0.13725 -0.04759,0.0124 -0.06618,0.0451 -0.06618,0.11635 0,0.0545 -0.431833,8.2583506 -0.959629,18.2308406 -0.527796,9.97249 -0.959629,18.16389 -0.959629,18.20319 0,0.049 -0.02044,0.071 -0.06618,0.071 -0.05929,0 -0.06601,-0.022 -0.06456,-0.2068 z m 4.248651,-0.4675 c 0.02568,-0.237 0.111513,-2.0665 0.150773,-3.2138 0.04208,-1.2296 0.0419,-4.6795 -2.98e-4,-5.7744 -0.193419,-5.0185 -0.807425,-8.97729 -1.903212,-12.27069 -0.149436,-0.4491 -0.268443,-0.8206 -0.264461,-0.8255 0.004,0 1.141275,2.0947 2.527318,4.6658 1.386041,2.57109 3.938902,7.30289 5.673022,10.51509 3.108739,5.7587 3.15177,5.8409 3.068901,5.8648 -0.04622,0.013 -2.116641,0.285 -4.600923,0.6037 -2.484282,0.3187 -4.551214,0.585 -4.593183,0.5919 -0.07326,0.012 -0.07557,0.01 -0.05794,-0.1569 z m 16.100491,-4.1095 c -3.77687,-1.0428 -7.300073,-2.9429 -10.419811,-5.6194 -0.654468,-0.5614 -0.865702,-0.7684 -0.952535,-0.9332 -0.204216,-0.3875 -2.144277,-3.982 -2.222029,-4.1169 l -0.08583,-0.1489 -0.0035,-2.34949 c -0.0035,-2.2961 -0.01198,-2.5622 -0.13257,-4.1363 -0.249202,-3.25278 -0.886862,-6.67878 -1.80597,-9.7028206 -0.257554,-0.8474 -0.295494,-0.98357 -0.264731,-0.95015 0.03751,0.0408 16.350274,28.0332606 16.350274,28.0569606 0,0.027 -0.01508,0.024 -0.463269,-0.1 z M 40.81311,16.296936 c 0,-0.01 0.0074,-0.017 0.01655,-0.017 0.0091,0 0.01655,0.01 0.01655,0.017 0,0.01 -0.0074,0.016 -0.01655,0.016 -0.0091,0 -0.01655,-0.01 -0.01655,-0.016 z m -9.272947,-6.07623 C 30.908867,9.6023755 30.259846,9.3351854 29.626596,9.4329054 c -0.285838,0.0441 -0.606324,0.1575401 -0.824614,0.2918601 -0.21528,0.13246 -0.280151,0.14723 -0.392209,0.0893 -0.110276,-0.057 -0.138026,-0.11079 -0.138026,-0.26742 0,-0.1408101 0.110908,-0.2371901 0.476659,-0.4142301 0.715158,-0.34615 1.526681,-0.35752 2.175344,-0.0305 0.264297,0.13326 0.545101,0.32302 0.758646,0.5126801 0.09094,0.0808 0.183469,0.14631 0.205611,0.14565 0.02214,-6.6e-4 0.134697,-0.0731 0.250121,-0.16095 0.440447,-0.3352801 0.92477,-0.5765501 1.366214,-0.6806201 0.31177,-0.0735 0.884966,-0.0659 1.206519,0.016 0.315805,0.0804 0.848836,0.33774 0.940198,0.45389 0.122715,0.1560001 0.07595,0.3664701 -0.09738,0.4382701 -0.08791,0.0364 -0.116676,0.0322 -0.241171,-0.0349 -0.538418,-0.2905 -0.803727,-0.3703001 -1.233348,-0.3709901 -0.64491,-0.001 -1.136361,0.2249101 -1.998203,0.9186306 -0.07982,0.0643 -0.180011,0.11682 -0.222649,0.11682 -0.05152,0 -0.15822,-0.079 -0.318144,-0.23568 z M 28.957712,6.2777154 c -0.946711,-0.95128 -1.802526,-1.15922 -2.736434,-0.66488 -0.301558,0.15963 -0.378408,0.16562 -0.496597,0.0388 -0.09482,-0.10177 -0.08805,-0.27322 0.01484,-0.37612 0.123913,-0.12391 0.652116,-0.36779 0.930918,-0.42982 0.357557,-0.0796 0.86971,-0.0533 1.223741,0.0626 0.349497,0.11448 0.765041,0.36949 1.154646,0.7086 0.172509,0.15015 0.328534,0.273 0.346722,0.273 0.01819,0 0.148766,-0.10552 0.290172,-0.2345 0.446961,-0.40765 0.959582,-0.70228 1.404302,-0.80712 0.483733,-0.11404 1.091888,-0.0371 1.573561,0.19912 0.34626,0.1698 0.439398,0.25704 0.439398,0.4116 0,0.28339 -0.21796,0.35752 -0.512905,0.17443 -0.272189,-0.16896 -0.643965,-0.27708 -0.955169,-0.27779 -0.630167,-10e-4 -1.108203,0.23935 -1.79687,0.90506 -0.277359,0.26811 -0.390996,0.35719 -0.455663,0.35719 -0.06527,0 -0.168214,-0.0825 -0.424665,-0.34015 z"
       id="path3948"
       inkscape:connector-curvature="0" />
    <path
       inkscape:connector-curvature="0"
       id="path3008"
       d="m 17.506962,49.047384 c 0.02389,-0.01 0.05243,-0.01 0.06342,0 0.011,0.011 -0.0085,0.019 -0.04343,0.017 -0.03855,0 -0.04639,-0.01 -0.01999,-0.02 z m -0.292356,-0.1717 c -1.033321,-0.4635 -2.275242,-1.4837 -2.840904,-2.3338 -0.626131,-0.9409 -0.925077,-1.8592 -1.008379,-3.0974 -0.0069,-0.1027 -0.01343,-0.072 -0.02104,0.099 l -0.01102,0.2482 -0.02225,-0.2978 c -0.02229,-0.2984 -0.01672,-0.3605 0.02627,-0.2927 0.02053,0.032 15.197971,-1.893 44.728512,-5.6743 2.69358,-0.3449 4.903491,-0.6215 4.910913,-0.6146 0.02966,0.028 -0.450132,0.2192 -0.735649,0.2941 -0.386863,0.1013 -0.553034,0.1296 -1.362557,0.2316 -3.690285,0.4653 -6.59233,1.6829 -9.070798,3.8057 -1.354398,1.1601 -2.645096,2.7514 -3.602928,4.4421 l -0.264726,0.4673 -0.312856,0.1046 c -0.410992,0.1374 -0.78318,0.3268 -1.114229,0.567 -0.198601,0.1441 -0.316864,0.2052 -0.452304,0.2336 -0.179054,0.038 -0.200083,0.034 -0.889261,-0.1706 -1.809085,-0.5359 -4.231242,-1.0733 -6.496737,-1.4415 -7.463864,-1.2128 -13.280265,-0.7894 -17.80278,1.2961 -0.47742,0.2202 -1.299517,0.6614 -1.663448,0.8929 -0.0959,0.061 -0.182663,0.1108 -0.1928,0.1108 -0.03666,0 -0.531325,0.3433 -0.745186,0.5172 -0.120398,0.098 -0.340373,0.3045 -0.488832,0.4591 -0.14846,0.1547 -0.273314,0.2808 -0.277454,0.2804 -0.0041,-4e-4 -0.134434,-0.058 -0.289543,-0.1273 z m -3.901342,-7.9653 c 0.0016,-0.039 0.0094,-0.046 0.01999,-0.02 0.0096,0.024 0.0084,0.052 -0.0026,0.063 -0.011,0.011 -0.01882,-0.01 -0.01738,-0.043 z m 0.955489,-2.6864 c 6.649675,-20.12159 9.450346,-28.5694596 9.458133,-28.5290196 0.0094,0.0487 -1.892528,29.6801196 -1.929598,30.0627196 l -0.0195,0.2012 -4.126022,0.4537 c -2.269312,0.2495 -4.157493,0.4602 -4.195958,0.4683 -0.06246,0.013 0.02443,-0.2709 0.812948,-2.6569 z m 8.225812,2.0687 c 0.01199,-0.1684 0.434246,-7.3085 0.938358,-15.8669 0.561752,-9.53699 0.929959,-15.5742096 0.951163,-15.5954196 0.02407,-0.0241 0.04502,-0.0216 0.06886,0.008 0.02391,0.0298 -0.24899,4.8312496 -0.903332,15.8932196 -0.515675,8.7177 -0.938242,15.8541 -0.939037,15.8587 -7.94e-4,0 -0.03213,0.01 -0.06963,0.01 -0.0655,0 -0.06732,-0.012 -0.04639,-0.3061 z m 1.593465,-1.5388 c 3.521146,-5.6839 6.378939,-11.1542 8.967826,-17.16569 2.494316,-5.792 4.660733,-12.0934396 6.234349,-18.1337696 0.257568,-0.98867 0.255105,-0.98 0.2586,-0.90999 0.0043,0.0868 -2.243948,35.7787496 -2.254174,35.7855496 -0.01385,0.01 -13.226589,0.7832 -13.336513,0.7813 l -0.09045,0 0.220367,-0.3558 z m 14.042242,-0.3474 c 8.9e-4,-0.1138 0.444683,-8.5531 0.986207,-18.75409 0.541523,-10.2011096 0.972628,-18.5523695 0.958011,-18.5584295 -0.07272,-0.0302 -0.01146,-0.0717 0.105784,-0.0717 0.124588,0 0.180374,0.0447 0.09241,0.074 -0.02645,0.009 -0.04449,0.12629 -0.05338,0.34755 -0.01083,0.2695899 -0.0031,0.3489699 0.03995,0.4104399 0.06895,0.0984 0.06728,0.1163 -0.0128,0.13725 -0.04759,0.0124 -0.06618,0.0451 -0.06618,0.11635 0,0.0545 -0.431833,8.2583496 -0.959629,18.2308396 -0.527796,9.97249 -0.959629,18.16389 -0.959629,18.20319 0,0.049 -0.02044,0.071 -0.06618,0.071 -0.05929,0 -0.06601,-0.022 -0.06456,-0.2068 z m 4.248651,-0.4675 c 0.02568,-0.237 0.111513,-2.0665 0.150773,-3.2138 0.04208,-1.2296 0.0419,-4.6795 -2.98e-4,-5.7744 -0.193419,-5.0185 -0.807425,-8.97729 -1.903212,-12.27069 -0.149436,-0.4491 -0.268443,-0.8206 -0.264461,-0.8255 0.004,0 1.141275,2.0947 2.527318,4.6658 1.386041,2.57109 3.938902,7.30289 5.673022,10.51509 3.108739,5.7587 3.15177,5.8409 3.068901,5.8648 -0.04622,0.013 -2.116641,0.285 -4.600923,0.6037 -2.484282,0.3187 -4.551214,0.585 -4.593183,0.5919 -0.07326,0.012 -0.07557,0.01 -0.05794,-0.1569 z m 16.100491,-4.1095 c -3.77687,-1.0428 -7.300073,-2.9429 -10.419811,-5.6194 -0.654468,-0.5614 -0.865702,-0.7684 -0.952535,-0.9332 -0.204216,-0.3875 -2.144277,-3.982 -2.222029,-4.1169 l -0.08583,-0.1489 -0.0035,-2.34949 c -0.0035,-2.2961 -0.01198,-2.5622 -0.13257,-4.1363 -0.249202,-3.25278 -0.886862,-6.6787796 -1.80597,-9.7028196 -0.257554,-0.8474 -0.295494,-0.98357 -0.264731,-0.95015 0.03751,0.0408 16.350274,28.0332596 16.350274,28.0569596 0,0.027 -0.01508,0.024 -0.463269,-0.1 z M 40.312637,15.797294 c 0,-0.01 0.0074,-0.017 0.01655,-0.017 0.0091,0 0.01655,0.01 0.01655,0.017 0,0.01 -0.0074,0.016 -0.01655,0.016 -0.0091,0 -0.01655,-0.01 -0.01655,-0.016 z M 31.03969,9.7210644 c -0.631296,-0.61833 -1.280317,-0.88552 -1.913567,-0.7878 -0.285838,0.0441 -0.606324,0.15754 -0.824614,0.29186 -0.21528,0.13246 -0.280151,0.14723 -0.392209,0.0893 -0.110276,-0.057 -0.138026,-0.11079 -0.138026,-0.26742 0,-0.14081 0.110908,-0.23719 0.476659,-0.41423 0.715158,-0.34615 1.526681,-0.35752 2.175344,-0.0305 0.264297,0.13326 0.545101,0.32302 0.758646,0.51268 0.09094,0.0808 0.183469,0.14631 0.205611,0.14565 0.02214,-6.6e-4 0.134697,-0.0731 0.250121,-0.16095 0.440447,-0.33528 0.92477,-0.57655 1.366214,-0.68062 0.31177,-0.0735 0.884966,-0.0659 1.206519,0.016 0.315805,0.0804 0.848836,0.33774 0.940198,0.45389 0.122715,0.156 0.07595,0.36647 -0.09738,0.43827 -0.08791,0.0364 -0.116676,0.0322 -0.241171,-0.0349 -0.538418,-0.2905 -0.803727,-0.3703 -1.233348,-0.37099 -0.64491,-0.001 -1.136361,0.22491 -1.998203,0.91863 -0.07982,0.0643 -0.180011,0.11682 -0.222649,0.11682 -0.05152,0 -0.15822,-0.079 -0.318144,-0.23568 z m -2.582451,-3.94299 c -0.946711,-0.95128 -1.802526,-1.15922 -2.736434,-0.66488 -0.301558,0.15963 -0.378408,0.16562 -0.496597,0.0388 -0.09482,-0.10177 -0.08805,-0.27322 0.01484,-0.37612 0.123913,-0.12391 0.652116,-0.36779 0.930918,-0.42982 0.357557,-0.0796 0.86971,-0.0533 1.223741,0.0626 0.349497,0.11448 0.765041,0.36949 1.154646,0.7086 0.172509,0.15015 0.328534,0.273 0.346722,0.273 0.01819,0 0.148766,-0.10552 0.290172,-0.2345 0.446961,-0.40765 0.959582,-0.70228 1.404302,-0.80712 0.483733,-0.11404 1.091888,-0.0371 1.573561,0.19912 0.34626,0.1698 0.439398,0.25704 0.439398,0.4116 0,0.28339 -0.21796,0.35752 -0.512905,0.17443 -0.272189,-0.16896 -0.643965,-0.27708 -0.955169,-0.27779 -0.630167,-0.001 -1.108203,0.23935 -1.79687,0.90506 -0.277359,0.26811 -0.390996,0.35719 -0.455663,0.35719 -0.06527,0 -0.168214,-0.0825 -0.424665,-0.34015 z"
       style="fill:#cbceca;fill-opacity:1;stroke:none" />
  </g>
  <g
     inkscape:label="Layer 1"
     inkscape:groupmode="layer"
     id="layer1"
     transform="translate(0,-988.36218)">
    <g
       style="fill:#000000;fill-opacity:1;stroke:#000000;stroke-width:1.50000000000000000;stroke-miterlimit:4;stroke-opacity:1;stroke-dasharray:none;filter:url(#filter3868);opacity:0.7"
       id="g3846"
       transform="translate(0.50048582,0.62646274)">
      <text
         sodipodi:linespacing="91.000003%"
         id="text3848"
         y="1034.9818"
         x="2.6191406"
         style="font-size:12.50000000000000000px;font-style:italic;font-variant:normal;font-weight:normal;font-stretch:normal;line-height:91.00000262000000362%;letter-spacing:0.30000000999999998px;word-spacing:0px;fill:#000000;fill-opacity:1;stroke:#000000;stroke-width:1.50000000000000000;stroke-miterlimit:4;stroke-opacity:1;stroke-dasharray:none;font-family:HandelGotDBol;-inkscape-font-specification:HandelGotDBol Italic"
         xml:space="preserve"><tspan
           style="font-size:13px;letter-spacing:0.30000000999999998px;fill:#000000;fill-opacity:1;stroke:#000000;stroke-width:1.50000000000000000;stroke-miterlimit:4;stroke-opacity:1;stroke-dasharray:none"
           id="tspan3850"
           y="1034.9818"
           x="2.6191406"
           sodipodi:role="line">php</tspan></text>
      <text
         sodipodi:linespacing="100%"
         id="text3852"
         y="1047.4088"
         x="2.1430664"
         style="font-size:12.50000000000000000px;font-style:italic;font-variant:normal;font-weight:normal;font-stretch:normal;line-height:100%;letter-spacing:0.30000000999999998px;word-spacing:0px;fill:#000000;fill-opacity:1;stroke:#000000;stroke-width:1.50000000000000000;stroke-miterlimit:4;stroke-opacity:1;stroke-dasharray:none;font-family:HandelGotDBol;-inkscape-font-specification:HandelGotDBol Italic"
         xml:space="preserve"><tspan
           style="font-size:13px;letter-spacing:0.30000000999999998px;fill:#000000;fill-opacity:1;stroke:#000000;stroke-width:1.50000000000000000;stroke-miterlimit:4;stroke-opacity:1;stroke-dasharray:none"
           id="tspan3854"
           y="1047.4088"
           x="2.1430664"
           sodipodi:role="line">MyAdmin</tspan></text>
    </g>
    <g
       id="g3064"
       style="fill:#000000;fill-opacity:1;stroke:#000000;stroke-opacity:1;stroke-width:1.50000000000000000;stroke-miterlimit:4;stroke-dasharray:none;opacity:0.7">
      <text
         xml:space="preserve"
         style="font-size:12.50000000000000000px;font-style:italic;font-variant:normal;font-weight:normal;font-stretch:normal;line-height:91.00000262000000362%;letter-spacing:0.29999999999999999px;word-spacing:0px;fill:#000000;fill-opacity:1;stroke:#000000;stroke-width:1.50000000000000000;stroke-miterlimit:4;stroke-opacity:1;stroke-dasharray:none;font-family:HandelGotDBol;-inkscape-font-specification:HandelGotDBol Italic"
         x="2.6191406"
         y="1034.9818"
         id="text3066"
         sodipodi:linespacing="91.000003%"><tspan
           sodipodi:role="line"
           x="2.6191406"
           y="1034.9818"
           id="tspan3068"
           style="font-size:13px;letter-spacing:0.29999999999999999px;fill:#000000;fill-opacity:1;stroke:#000000;stroke-opacity:1;stroke-width:1.50000000000000000;stroke-miterlimit:4;stroke-dasharray:none">php</tspan></text>
      <text
         xml:space="preserve"
         style="font-size:12.50000000000000000px;font-style:italic;font-variant:normal;font-weight:normal;font-stretch:normal;line-height:100%;letter-spacing:0.29999999999999999px;word-spacing:0px;fill:#000000;fill-opacity:1;stroke:#000000;stroke-width:1.50000000000000000;stroke-miterlimit:4;stroke-opacity:1;stroke-dasharray:none;font-family:HandelGotDBol;-inkscape-font-specification:HandelGotDBol Italic"
         x="2.1430664"
         y="1047.4088"
         id="text3070"
         sodipodi:linespacing="100%"><tspan
           sodipodi:role="line"
           x="2.1430664"
           y="1047.4088"
           id="tspan3072"
           style="font-size:13px;letter-spacing:0.29999999999999999px;fill:#000000;fill-opacity:1;stroke:#000000;stroke-opacity:1;stroke-width:1.50000000000000000;stroke-miterlimit:4;stroke-dasharray:none">MyAdmin</tspan></text>
    </g>
    <g
       id="g3058">
      <text
         sodipodi:linespacing="91.000003%"
         id="text3923"
         y="1034.9818"
         x="2.6191406"
         style="font-size:12.5px;font-style:italic;font-variant:normal;font-weight:normal;font-stretch:normal;line-height:91.00000262%;letter-spacing:0.30000001px;word-spacing:0px;fill:#c9c9db;fill-opacity:1;stroke:#5c3566;stroke-width:0;stroke-miterlimit:4;stroke-opacity:1;stroke-dasharray:none;font-family:HandelGotDBol;-inkscape-font-specification:HandelGotDBol Italic"
         xml:space="preserve"><tspan
           style="font-size:13px;letter-spacing:0.30000001px;fill:#c9c9db;fill-opacity:1"
           id="tspan3925"
           y="1034.9818"
           x="2.6191406"
           sodipodi:role="line">php</tspan></text>
      <text
         sodipodi:linespacing="100%"
         id="text3927"
         y="1047.4088"
         x="2.1430664"
         style="font-size:12.5px;font-style:italic;font-variant:normal;font-weight:normal;font-stretch:normal;line-height:100%;letter-spacing:0.30000001px;word-spacing:0px;fill:#ffb97d;fill-opacity:1;stroke:#ffffff;stroke-width:0;stroke-miterlimit:4;stroke-opacity:1;stroke-dasharray:none;font-family:HandelGotDBol;-inkscape-font-specification:HandelGotDBol Italic"
         xml:space="preserve"><tspan
           style="font-size:13px;letter-spacing:0.30000001px;fill:#ffb97d;fill-opacity:1"
           id="tspan3929"
           y="1047.4088"
           x="2.1430664"
           sodipodi:role="line">MyAdmin</tspan></text>
    </g>
  </g>
</svg>
