<?xml version="1.0" encoding="UTF-8" standalone="no"?>
<!-- Created with Inkscape (http://www.inkscape.org/) -->

<svg
   xmlns:dc="http://purl.org/dc/elements/1.1/"
   xmlns:cc="http://creativecommons.org/ns#"
   xmlns:rdf="http://www.w3.org/1999/02/22-rdf-syntax-ns#"
   xmlns:svg="http://www.w3.org/2000/svg"
   xmlns="http://www.w3.org/2000/svg"
   xmlns:sodipodi="http://sodipodi.sourceforge.net/DTD/sodipodi-0.dtd"
   xmlns:inkscape="http://www.inkscape.org/namespaces/inkscape"
   width="172"
   height="101"
   viewBox="0 0 45.508332 26.722917"
   version="1.1"
   id="svg4612"
   inkscape:version="0.92.1 r15371"
   sodipodi:docname="logo.svg"
   inkscape:export-filename="/home/nijel/phpmyadmin/data/logo/logo.png"
   inkscape:export-xdpi="96"
   inkscape:export-ydpi="96">
  <defs
     id="defs4606" />
  <sodipodi:namedview
     id="base"
     pagecolor="#ffffff"
     bordercolor="#666666"
     borderopacity="1.0"
     inkscape:pageopacity="0.0"
     inkscape:pageshadow="2"
     inkscape:zoom="3.2796268"
     inkscape:cx="84.97636"
     inkscape:cy="34.60641"
     inkscape:document-units="mm"
     inkscape:current-layer="layer1"
     showgrid="false"
     width="70mm"
     inkscape:window-width="1366"
     inkscape:window-height="704"
     inkscape:window-x="0"
     inkscape:window-y="27"
     inkscape:window-maximized="1"
     units="px"
     fit-margin-top="1.89603"
     fit-margin-left="2.704695"
     fit-margin-right="2.704695"
     fit-margin-bottom="1.89603" />
  <metadata
     id="metadata4609">
    <rdf:RDF>
      <cc:Work
         rdf:about="">
        <dc:format>image/svg+xml</dc:format>
        <dc:type
           rdf:resource="http://purl.org/dc/dcmitype/StillImage" />
        <dc:title></dc:title>
      </cc:Work>
    </rdf:RDF>
  </metadata>
  <g
     inkscape:label="Vrstva 1"
     inkscape:groupmode="layer"
     id="layer1"
     transform="translate(-17.653682,-261.04353)">
    <g
       id="g3788"
       transform="matrix(0.60015216,0,0,0.63020231,15.565373,101.14138)">
      <desc
         id="desc3792">Sailboat</desc>
      <path
         d="m 59.059728,254.64378 -0.03885,-0.0775 c -0.01924,-0.0192 -0.03866,-0.0388 -0.07733,-0.0388 l -0.07771,0.0196 c -0.03866,0.0387 -0.05809,0.0581 -0.05809,0.0967 l -1.647808,29.83363 h 0.03885 0.116368 l 0.03866,-0.0194 v -0.0194 h 0.03885 0.01943 l 1.58953,-29.01953 1.977294,3.25676 0.116368,0.17446 -0.116368,-0.17446 -0.07752,-0.1356 h -0.01943 c 1.4345,4.2258 2.035383,8.72318 1.802839,13.49196 l 0.01924,0.0194 v 0 0.0192 l 0.07751,0.0969 0.01962,0.0389 1.880353,3.33408 0.01924,0.0583 h 0.03885 v 0.0194 l 0.05809,0.0387 c 2.888427,2.53944 6.125576,4.24536 9.712017,5.11764 l 0.872279,1.41524 0.116368,0.0387 0.01943,-0.0387 -16.496943,-26.98403 0.03885,-0.56222"
         style="fill:#cccccc;fill-opacity:1;fill-rule:nonzero;stroke:none;stroke-width:0.01904541"
         id="path14"
         inkscape:connector-curvature="0" />
      <path
         d="m 62.665215,272.55561 v 0 l 0.0777,0.1356 z"
         style="fill:#cccccc;fill-opacity:1;fill-rule:nonzero;stroke:none;stroke-width:0.01904541"
         id="path16"
         inkscape:connector-curvature="0" />
      <path
         d="m 62.762156,272.72987 -0.01924,-0.0387 -0.0777,-0.1356 -4.186943,-7.38581 c 2.035383,4.16789 2.771869,10.46793 2.229265,18.90051 l 7.928414,-0.9693 -5.873795,-10.37114"
         style="fill:#cccccc;fill-opacity:1;fill-rule:nonzero;stroke:none;stroke-width:0.01904541"
         id="path18"
         inkscape:connector-curvature="0" />
      <path
         d="m 76.545129,283.48868 c 0.814,-0.0969 1.337368,-0.27132 1.570103,-0.52329 l -8.219237,1.008 h -0.03885 -0.01943 l -33.206434,4.05153 h -0.01943 c 0.01943,1.72524 0.794765,3.08223 2.30678,4.05139 0.407,0.29081 0.833617,0.50404 1.221191,0.63974 0.368339,-0.42637 0.77553,-0.7366 1.260235,-1.02742 v 0 h 0.01924 c 4.342354,-2.63631 10.797605,-3.04346 19.326901,-1.24055 l 0.09694,0.0193 c 0.930559,0.19388 1.860927,0.4266 2.733398,0.69792 0.25178,0.0388 0.465089,-0.0388 0.639544,-0.19388 0.31025,-0.23264 0.698015,-0.4071 1.221383,-0.5233 v -0.0194 0 c 1.376411,-2.44258 3.237148,-4.24534 5.563545,-5.42787 1.608956,-0.79471 3.469883,-1.31823 5.544119,-1.51211"
         style="fill:#cccccc;fill-opacity:1;fill-rule:nonzero;stroke:none;stroke-width:0.01904541"
         id="path20"
         inkscape:connector-curvature="0" />
      <path
         d="m 56.617345,284.24486 1.899589,-29.11637 c -2.752633,10.62295 -7.172501,20.54809 -13.239988,29.75595 l 11.340399,-0.63958"
         style="fill:#cccccc;fill-opacity:1;fill-rule:nonzero;stroke:none;stroke-width:0.01904541"
         id="path22"
         inkscape:connector-curvature="0" />
      <path
         d="m 45.936108,260.78897 -0.07751,-0.0389 -0.07751,0.0194 -0.03885,0.0968 -1.570103,25.20065 h 0.01924 v 0 h 0.01943 l 0.03885,-0.0194 h 0.15503 l 1.570294,-25.18125 -0.03885,-0.0773"
         style="fill:#cccccc;fill-opacity:1;fill-rule:nonzero;stroke:none;stroke-width:0.01904541"
         id="path24"
         inkscape:connector-curvature="0" />
      <path
         d="m 43.726269,285.52416 v 0 l 1.667044,-24.58016 -8.781457,25.33626 7.114413,-0.7561"
         style="fill:#cccccc;fill-opacity:1;fill-rule:nonzero;stroke:none;stroke-width:0.01904541"
         id="path26"
         inkscape:connector-curvature="0" />
      <path
         d="m 69.895995,283.97339 h -0.05828"
         style="fill:none;stroke:#cccccc;stroke-width:0.14284058;stroke-linecap:round;stroke-linejoin:round;stroke-miterlimit:4;stroke-dasharray:none;stroke-opacity:1"
         id="path28"
         inkscape:connector-curvature="0" />
      <path
         d="m 62.665215,272.55561 v 0 l 0.0777,0.1356 0.01924,0.0387"
         style="fill:none;stroke:#cccccc;stroke-width:0.14284058;stroke-linecap:round;stroke-linejoin:round;stroke-miterlimit:4;stroke-dasharray:none;stroke-opacity:1"
         id="path32"
         inkscape:connector-curvature="0" />
      <path
         d="m 44.075181,293.25884 c -2.190604,1.04675 -3.780133,1.22121 -4.788207,0.58163 -1.008074,-0.67849 -2.558941,-0.52346 -4.652413,0.46512"
         style="fill:none;stroke:#cccccc;stroke-width:0.22854492;stroke-linecap:round;stroke-linejoin:round;stroke-miterlimit:4;stroke-dasharray:none;stroke-opacity:1"
         id="path34"
         inkscape:connector-curvature="0" />
      <path
         d="m 49.212108,293.41387 c -0.407,-0.1357 -0.852853,-0.23256 -1.318132,-0.27139 -0.949795,-0.0774 -2.093662,0.29082 -3.431221,1.08566 -1.33756,0.81412 -2.946516,1.12435 -4.865722,0.94982"
         style="fill:none;stroke:#cccccc;stroke-width:0.22854492;stroke-linecap:round;stroke-linejoin:round;stroke-miterlimit:4;stroke-dasharray:none;stroke-opacity:1"
         id="path36"
         inkscape:connector-curvature="0" />
      <path
         d="m 61.172816,291.43658 c -9.227501,-1.89963 -15.876444,-1.45385 -19.94721,1.35698"
         style="fill:none;stroke:#cccccc;stroke-width:0.22854492;stroke-linecap:round;stroke-linejoin:round;stroke-miterlimit:4;stroke-dasharray:none;stroke-opacity:1"
         id="path38"
         inkscape:connector-curvature="0" />
      <path
         d="m 66.988332,292.34779 c -0.40719,-0.15513 -0.853044,-0.25207 -1.318323,-0.27148 -0.949795,-0.0774 -2.093471,0.29081 -3.431031,1.08567 -1.337559,0.79469 -2.946515,1.10485 -4.865721,0.94981"
         style="fill:none;stroke:#cccccc;stroke-width:0.22854492;stroke-linecap:round;stroke-linejoin:round;stroke-miterlimit:4;stroke-dasharray:none;stroke-opacity:1"
         id="path40"
         inkscape:connector-curvature="0" />
      <path
         d="m 54.601198,261.02152 c -0.949985,-0.58165 -1.938442,-0.42643 -2.965942,0.48451 -0.891706,-0.91094 -1.822074,-1.06616 -2.791486,-0.48451"
         style="fill:none;stroke:#cccccc;stroke-width:0.5523169;stroke-linecap:round;stroke-linejoin:round;stroke-miterlimit:4;stroke-dasharray:none;stroke-opacity:1"
         id="path42"
         inkscape:connector-curvature="0" />
      <path
         d="m 52.449447,257.76475 c -0.969221,-0.58146 -1.919015,-0.34891 -2.888427,0.69782 -0.949985,-1.04673 -1.919015,-1.27928 -2.888426,-0.69782"
         style="fill:none;stroke:#cccccc;stroke-width:0.5523169;stroke-linecap:round;stroke-linejoin:round;stroke-miterlimit:4;stroke-dasharray:none;stroke-opacity:1"
         id="path44"
         inkscape:connector-curvature="0" />
    </g>
    <g
       id="g3772"
       transform="matrix(0.67445671,0,0,0.70822735,17.308208,78.3564)">
      <desc
         id="desc3791">phpMyAdmin</desc>
      <path
         d="m 3.2405454,287.38124 h 2.5413053 c 0.7635876,0 1.3052771,0.21738 1.6251067,0.65202 0.3196772,0.43477 0.3827556,1.04056 0.1891781,1.81748 -0.079381,0.31873 -0.1968534,0.61125 -0.3524925,0.87765 -0.1556962,0.26643 -0.3518068,0.50985 -0.5883889,0.73005 -0.2815864,0.265 -0.5874366,0.45486 -0.9177602,0.56944 -0.3303045,0.11456 -0.7449231,0.17185 -1.2437414,0.17185 H 3.3618114 l -0.4341021,1.74266 H 1.6060619 Z m 1.0629625,1.03797 -0.6855586,2.75207 h 0.8038496 c 0.5328334,0 0.9372437,-0.10877 1.2134021,-0.32659 0.275949,-0.21785 0.4771066,-0.5803 0.603511,-1.08754 0.1218525,-0.48914 0.1060829,-0.83434 -0.046871,-1.03588 -0.153106,-0.20132 -0.4806681,-0.30206 -0.9827812,-0.30206 H 4.3035079"
         style="fill:#6c78af;fill-opacity:1;fill-rule:nonzero;stroke:none;stroke-width:0.01904541"
         id="path66"
         inkscape:connector-curvature="0" />
      <path
         d="m 9.4483778,285.63858 h 1.3116762 l -0.434102,1.74266 h 1.166912 c 0.73443,0 1.231248,0.1392 1.490666,0.41736 0.259493,0.27833 0.312249,0.72672 0.158096,1.34554 l -0.761226,3.05559 h -1.331541 l 0.724468,-2.90814 c 0.08245,-0.33061 0.07618,-0.55544 -0.01866,-0.67463 -0.09487,-0.11903 -0.309926,-0.1787 -0.644935,-0.1787 h -1.046907 l -0.9370153,3.76147 h -1.311905 l 1.6344771,-6.56115"
         style="fill:#6c78af;fill-opacity:1;fill-rule:nonzero;stroke:none;stroke-width:0.01904541"
         id="path68"
         inkscape:connector-curvature="0" />
      <path
         d="m 14.72449,287.38124 h 2.541286 c 0.763759,0 1.305277,0.21738 1.625107,0.65202 0.319753,0.43477 0.382774,1.04056 0.189273,1.81748 -0.07938,0.31873 -0.19693,0.61125 -0.352416,0.87765 -0.155792,0.26643 -0.352055,0.50985 -0.588485,0.73005 -0.281662,0.265 -0.587493,0.45486 -0.917817,0.56944 -0.330247,0.11456 -0.744847,0.17185 -1.243837,0.17185 h -1.131773 l -0.434102,1.74266 h -1.32158 z m 1.063114,1.03797 -0.685558,2.75207 h 0.803849 c 0.532815,0 0.937168,-0.10877 1.213174,-0.32659 0.276006,-0.21785 0.477259,-0.5803 0.603644,-1.08754 0.121796,-0.48914 0.106102,-0.83434 -0.04695,-1.03588 -0.153106,-0.20132 -0.480668,-0.30206 -0.982609,-0.30206 h -0.905553"
         style="fill:#6c78af;fill-opacity:1;fill-rule:nonzero;stroke:none;stroke-width:0.01904541"
         id="path70"
         inkscape:connector-curvature="0" />
      <path
         d="m 21.087371,285.63858 h 2.097852 l 0.481087,5.03477 2.989558,-5.03477 h 2.089852 l -1.634286,6.56115 h -1.4006 l 1.388601,-5.11057 -3.017364,5.11057 h -1.517729 l -0.513464,-5.16413 -1.143106,5.16413 h -1.454821 l 1.63442,-6.56115"
         style="fill:#f89c0e;fill-opacity:1;fill-rule:nonzero;stroke:none;stroke-width:0.01904541"
         id="path72"
         inkscape:connector-curvature="0" />
      <path
         d="m 30.782246,291.13795 h 1.059115 l 0.935701,-3.75671 h 1.31661 l -1.168055,4.68911 c -0.158649,0.63751 -0.430427,1.1097 -0.814954,1.41659 -0.384526,0.30673 -0.894182,0.46021 -1.528775,0.46021 h -2.581795 l 0.24321,-0.97608 h 2.355155 c 0.252733,0 0.461661,-0.0591 0.626784,-0.17707 0.164934,-0.11821 0.275587,-0.28932 0.331391,-0.51354 l 0.02019,-0.0807 h -1.165389 c -0.745437,0 -1.24138,-0.1421 -1.487637,-0.42629 -0.246448,-0.28418 -0.286824,-0.75809 -0.1217,-1.42171 l 0.740105,-2.97049 h 1.301753 l -0.715536,2.8723 c -0.09046,0.36334 -0.0937,0.60156 -0.0091,0.71471 0.08437,0.11315 0.305298,0.1697 0.662971,0.1697"
         style="fill:#f89c0e;fill-opacity:1;fill-rule:nonzero;stroke:none;stroke-width:0.01904541"
         id="path74"
         inkscape:connector-curvature="0" />
      <path
         d="m 37.7921,285.63858 h 1.516014 l 1.263282,6.56115 h -1.58991 L 38.746465,290.638 h -2.952991 l -0.994551,1.56173 h -1.516205 z m 0.378051,1.30283 -1.622859,2.5253 h 2.024336 z"
         style="fill:#f89c0e;fill-opacity:1;fill-rule:nonzero;stroke:none;stroke-width:0.01904541"
         id="path76"
         inkscape:connector-curvature="0" />
      <path
         d="m 45.535011,292.19973 h -2.52923 c -0.764293,0 -1.306515,-0.21731 -1.626859,-0.652 -0.320154,-0.43462 -0.383194,-1.04051 -0.189692,-1.81751 0.07942,-0.31855 0.196929,-0.61109 0.352721,-0.87749 0.155791,-0.26649 0.351959,-0.50985 0.588693,-0.7302 0.281682,-0.26493 0.588694,-0.45471 0.920846,-0.56935 0.332152,-0.11465 0.746389,-0.17194 1.242522,-0.17194 h 1.129584 l 0.434044,-1.74266 h 1.311848 z m -1.054354,-1.03322 0.684492,-2.7473 h -0.796288 c -0.534034,0 -0.939701,0.10803 -1.217383,0.32385 -0.277301,0.21598 -0.478992,0.57561 -0.604311,1.07883 -0.1217,0.48848 -0.105321,0.83465 0.04914,1.03864 0.154459,0.204 0.481659,0.30598 0.981601,0.30598 h 0.902752"
         style="fill:#f89c0e;fill-opacity:1;fill-rule:nonzero;stroke:none;stroke-width:0.01904541"
         id="path78"
         inkscape:connector-curvature="0" />
      <path
         d="m 47.879882,287.38124 h 5.055985 c 0.733058,0 1.226905,0.13846 1.481352,0.41506 0.254256,0.27675 0.304155,0.72603 0.149316,1.34784 l -0.761245,3.05559 h -1.326513 l 0.719917,-2.89035 c 0.08837,-0.35436 0.09123,-0.58811 0.0088,-0.70135 -0.08285,-0.11315 -0.296347,-0.16977 -0.640878,-0.16977 H 51.828035 L 50.891,292.19973 h -1.34632 l 0.937035,-3.76147 h -1.538679 l -0.937034,3.76147 H 46.67945 l 1.200432,-4.81849"
         style="fill:#f89c0e;fill-opacity:1;fill-rule:nonzero;stroke:none;stroke-width:0.01904541"
         id="path80"
         inkscape:connector-curvature="0" />
      <path
         d="m 57.700267,286.83368 h -1.380792 l 0.297679,-1.1951 h 1.380793 z m -1.336798,5.36605 h -1.380792 l 1.200242,-4.81849 h 1.380792 l -1.200242,4.81849"
         style="fill:#f89c0e;fill-opacity:1;fill-rule:nonzero;stroke:none;stroke-width:0.01904541"
         id="path82"
         inkscape:connector-curvature="0" />
      <path
         d="m 58.702627,287.38124 h 2.477236 c 0.748675,0 1.249379,0.13623 1.501921,0.40837 0.252542,0.27229 0.300346,0.7238 0.143222,1.35453 l -0.761055,3.05559 h -1.316799 l 0.722392,-2.89928 c 0.0897,-0.36038 0.09009,-0.59414 0.0011,-0.70128 -0.08894,-0.10726 -0.307584,-0.16091 -0.655734,-0.16091 h -1.058925 l -0.937034,3.76147 h -1.316609 l 1.200242,-4.81849"
         style="fill:#f89c0e;fill-opacity:1;fill-rule:nonzero;stroke:none;stroke-width:0.01904541"
         id="path84"
         inkscape:connector-curvature="0" />
    </g>
  </g>
</svg>
