<?xml version="1.0" encoding="UTF-8" standalone="no"?>
<!-- Created with Inkscape (http://www.inkscape.org/) -->

<svg
   xmlns:dc="http://purl.org/dc/elements/1.1/"
   xmlns:cc="http://creativecommons.org/ns#"
   xmlns:rdf="http://www.w3.org/1999/02/22-rdf-syntax-ns#"
   xmlns:svg="http://www.w3.org/2000/svg"
   xmlns="http://www.w3.org/2000/svg"
   xmlns:sodipodi="http://sodipodi.sourceforge.net/DTD/sodipodi-0.dtd"
   xmlns:inkscape="http://www.inkscape.org/namespaces/inkscape"
   width="80mm"
   height="44mm"
   viewBox="0 0 80 44"
   version="1.1"
   id="svg4612"
   inkscape:version="0.92.0 r15299"
   sodipodi:docname="sticker-2017.svg">
  <defs
     id="defs4606" />
  <sodipodi:namedview
     id="base"
     pagecolor="#ffffff"
     bordercolor="#666666"
     borderopacity="1.0"
     inkscape:pageopacity="0.0"
     inkscape:pageshadow="2"
     inkscape:zoom="1.52"
     inkscape:cx="122.18937"
     inkscape:cy="47.100965"
     inkscape:document-units="mm"
     inkscape:current-layer="layer1"
     showgrid="false"
     width="70mm"
     inkscape:window-width="1366"
     inkscape:window-height="704"
     inkscape:window-x="0"
     inkscape:window-y="27"
     inkscape:window-maximized="1" />
  <metadata
     id="metadata4609">
    <rdf:RDF>
      <cc:Work
         rdf:about="">
        <dc:format>image/svg+xml</dc:format>
        <dc:type
           rdf:resource="http://purl.org/dc/dcmitype/StillImage" />
        <dc:title></dc:title>
      </cc:Work>
    </rdf:RDF>
  </metadata>
  <g
     inkscape:label="Vrstva 1"
     inkscape:groupmode="layer"
     id="layer1"
     transform="translate(0,-253)">
    <g
       id="g12"
       transform="matrix(0.01904541,0,0,-0.01904541,1.5732531,295.33925)">
      <path
         d="m 3018.39,2136.76 -2.04,4.07 c -1.01,1.01 -2.03,2.04 -4.06,2.04 l -4.08,-1.03 c -2.03,-2.03 -3.05,-3.05 -3.05,-5.08 L 2918.64,570.313 h 2.04 6.11 l 2.03,1.019 v 1.016 h 2.04 1.02 l 83.46,1523.702 103.82,-171 6.11,-9.16 -6.11,9.16 -4.07,7.12 h -1.02 c 75.32,-221.88 106.87,-458.02 94.66,-708.41 l 1.01,-1.02 v 0 -1.01 l 4.07,-5.09 1.03,-2.04 98.73,-175.06 1.01,-3.06 h 2.04 v -1.02 l 3.05,-2.03 C 3471.33,900.094 3641.3,810.523 3829.61,764.723 l 45.8,-74.309 6.11,-2.031 1.02,2.031 -866.19,1416.826 2.04,29.52"
         style="fill:#cccccc;fill-opacity:1;fill-rule:nonzero;stroke:none"
         id="path14"
         inkscape:connector-curvature="0" />
      <path
         d="m 3207.7,1196.28 v 0 l 4.08,-7.12 z"
         style="fill:#cccccc;fill-opacity:1;fill-rule:nonzero;stroke:none"
         id="path16"
         inkscape:connector-curvature="0" />
      <path
         d="m 3212.79,1187.13 -1.01,2.03 -4.08,7.12 -219.84,387.8 c 106.87,-218.84 145.54,-549.63 117.05,-992.392 l 416.29,50.894 -308.41,544.548"
         style="fill:#cccccc;fill-opacity:1;fill-rule:nonzero;stroke:none"
         id="path18"
         inkscape:connector-curvature="0" />
      <path
         d="m 3936.48,622.227 c 42.74,5.086 70.22,14.246 82.44,27.476 l -431.56,-52.926 h -2.04 -1.02 L 1840.76,384.047 h -1.02 c 1.02,-90.586 41.73,-161.836 121.12,-212.723 21.37,-15.269 43.77,-26.465 64.12,-33.59 19.34,22.387 40.72,38.676 66.17,53.946 v 0 h 1.01 c 228,138.422 566.94,159.8 1014.78,65.136 l 5.09,-1.011 c 48.86,-10.18 97.71,-22.399 143.52,-36.645 13.22,-2.035 24.42,2.035 33.58,10.18 16.29,12.215 36.65,21.375 64.13,27.476 v 1.02 0 c 72.27,128.25 169.97,222.906 292.12,284.996 84.48,41.727 182.19,69.215 291.1,79.395"
         style="fill:#cccccc;fill-opacity:1;fill-rule:nonzero;stroke:none"
         id="path20"
         inkscape:connector-curvature="0" />
      <path
         d="m 2890.15,582.523 99.74,1528.787 C 2845.36,1553.54 2613.29,1032.41 2294.71,548.941 l 595.44,33.582"
         style="fill:#cccccc;fill-opacity:1;fill-rule:nonzero;stroke:none"
         id="path22"
         inkscape:connector-curvature="0" />
      <path
         d="m 2329.32,1814.1 -4.07,2.04 -4.07,-1.02 -2.04,-5.08 -82.44,-1323.188 h 1.01 v 0 h 1.02 l 2.04,1.019 h 8.14 l 82.45,1322.169 -2.04,4.06"
         style="fill:#cccccc;fill-opacity:1;fill-rule:nonzero;stroke:none"
         id="path24"
         inkscape:connector-curvature="0" />
      <path
         d="m 2213.29,515.352 v 0 l 87.53,1290.608 -461.08,-1330.308 373.55,39.7"
         style="fill:#cccccc;fill-opacity:1;fill-rule:nonzero;stroke:none"
         id="path26"
         inkscape:connector-curvature="0" />
      <path
         d="m 3587.36,596.777 h -3.06"
         style="fill:none;stroke:#cccccc;stroke-width:7.5;stroke-linecap:round;stroke-linejoin:round;stroke-miterlimit:4;stroke-dasharray:none;stroke-opacity:1"
         id="path28"
         inkscape:connector-curvature="0" />
      <path
         d="m 2213.29,515.352 v 0"
         style="fill:none;stroke:#cccccc;stroke-width:7.5;stroke-linecap:round;stroke-linejoin:round;stroke-miterlimit:4;stroke-dasharray:none;stroke-opacity:1"
         id="path30"
         inkscape:connector-curvature="0" />
      <path
         d="m 3207.7,1196.28 v 0 l 4.08,-7.12 1.01,-2.03"
         style="fill:none;stroke:#cccccc;stroke-width:7.5;stroke-linecap:round;stroke-linejoin:round;stroke-miterlimit:4;stroke-dasharray:none;stroke-opacity:1"
         id="path32"
         inkscape:connector-curvature="0" />
      <path
         d="M 2231.61,109.234 C 2116.59,54.2734 2033.13,45.1133 1980.2,78.6953 1927.27,114.32 1845.84,106.18 1735.92,54.2734"
         style="fill:none;stroke:#cccccc;stroke-width:12;stroke-linecap:round;stroke-linejoin:round;stroke-miterlimit:4;stroke-dasharray:none;stroke-opacity:1"
         id="path34"
         inkscape:connector-curvature="0" />
      <path
         d="m 2501.33,101.094 c -21.37,7.125 -44.78,12.211 -69.21,14.25 -49.87,4.066 -109.93,-15.27 -180.16,-57.0042 -70.23,-42.746 -154.71,-59.035113 -255.48,-49.87105"
         style="fill:none;stroke:#cccccc;stroke-width:12;stroke-linecap:round;stroke-linejoin:round;stroke-miterlimit:4;stroke-dasharray:none;stroke-opacity:1"
         id="path36"
         inkscape:connector-curvature="0" />
      <path
         d="m 3129.34,204.914 c -484.5,99.742 -833.61,76.336 -1047.35,-71.25"
         style="fill:none;stroke:#cccccc;stroke-width:12;stroke-linecap:round;stroke-linejoin:round;stroke-miterlimit:4;stroke-dasharray:none;stroke-opacity:1"
         id="path38"
         inkscape:connector-curvature="0" />
      <path
         d="m 3434.69,157.07 c -21.38,8.145 -44.79,13.235 -69.22,14.254 -49.87,4.067 -109.92,-15.269 -180.15,-57.004 -70.23,-41.7262 -154.71,-58.0114 -255.48,-49.8708"
         style="fill:none;stroke:#cccccc;stroke-width:12;stroke-linecap:round;stroke-linejoin:round;stroke-miterlimit:4;stroke-dasharray:none;stroke-opacity:1"
         id="path40"
         inkscape:connector-curvature="0" />
      <path
         d="m 2784.29,1801.89 c -49.88,30.54 -101.78,22.39 -155.73,-25.44 -46.82,47.83 -95.67,55.98 -146.57,25.44"
         style="fill:none;stroke:#cccccc;stroke-width:29;stroke-linecap:round;stroke-linejoin:round;stroke-miterlimit:4;stroke-dasharray:none;stroke-opacity:1"
         id="path42"
         inkscape:connector-curvature="0" />
      <path
         d="m 2671.31,1972.89 c -50.89,30.53 -100.76,18.32 -151.66,-36.64 -49.88,54.96 -100.76,67.17 -151.66,36.64"
         style="fill:none;stroke:#cccccc;stroke-width:29;stroke-linecap:round;stroke-linejoin:round;stroke-miterlimit:4;stroke-dasharray:none;stroke-opacity:1"
         id="path44"
         inkscape:connector-curvature="0" />
      <path
         d="m 102.98,387.844 h 133.629 c 40.153,0 68.11,-11.414 83.879,-34.235 15.785,-22.828 17.672,-54.636 5.645,-95.429 -4.934,-16.735 -11.817,-32.094 -20.645,-46.082 -8.84,-13.989 -19.75,-26.77 -32.754,-38.332 -15.488,-13.914 -32.074,-23.883 -49.785,-29.899 -17.707,-6.015 -39.73,-9.023 -66.07,-9.023 H 97.125 L 69.8711,43.3438 H 0 Z m 53.266,-54.5 -43.039,-144.5 h 42.402 c 28.102,0 49.704,5.711 64.786,17.148 15.078,11.438 26.558,30.469 34.445,57.102 7.598,25.683 7.605,43.808 0.039,54.39 -7.563,10.571 -24.559,15.86 -50.977,15.86 h -47.656"
         style="fill:#231f20;fill-opacity:1;fill-rule:nonzero;stroke:none"
         id="path46"
         inkscape:connector-curvature="0" />
      <path
         d="m 433.492,479.344 h 68.875 l -26.808,-91.5 h 61.343 c 38.625,0 64.446,-7.309 77.493,-21.914 13.043,-14.614 14.859,-38.157 5.425,-70.649 L 573.238,134.844 h -70.289 l 44.5,152.695 c 5.063,17.359 5.223,29.164 0.492,35.422 -4.726,6.25 -15.918,9.383 -33.55,9.383 h -55.098 l -57.879,-197.5 h -69.25 l 101.328,344.5"
         style="fill:#231f20;fill-opacity:1;fill-rule:nonzero;stroke:none"
         id="path48"
         inkscape:connector-curvature="0" />
      <path
         d="m 706.832,387.844 h 133.633 c 40.148,0 68.211,-11.414 84.203,-34.235 16,-22.828 18.191,-54.636 6.555,-95.429 -4.778,-16.735 -11.512,-32.094 -20.207,-46.082 -8.707,-13.989 -19.5,-26.77 -32.387,-38.332 -15.352,-13.914 -31.852,-23.883 -49.504,-29.899 -17.648,-6.015 -39.641,-9.023 -65.98,-9.023 H 703.391 L 677.008,43.3438 h -69.875 z m 53.781,-54.5 -41.66,-144.5 h 42.406 c 28.106,0 49.649,5.711 64.618,17.148 14.968,11.438 26.269,30.469 33.902,57.102 7.351,25.683 7.191,43.808 -0.481,54.39 -7.66,10.571 -24.71,15.86 -51.125,15.86 h -47.66"
         style="fill:#231f20;fill-opacity:1;fill-rule:nonzero;stroke:none"
         id="path50"
         inkscape:connector-curvature="0" />
      <path
         d="m 1044.61,479.344 h 110.15 l 16.76,-264.356 165.47,264.356 h 109.73 l -95.81,-344.5 h -73.94 l 81.02,268.336 -167.01,-268.336 h -80.12 l -18.17,271.148 -69.28,-271.148 h -76.801 l 98.001,344.5"
         style="fill:#231f20;fill-opacity:1;fill-rule:nonzero;stroke:none"
         id="path52"
         inkscape:connector-curvature="0" />
      <path
         d="m 1546.09,190.594 h 55.86 l 54.12,197.25 h 69.24 l -67.29,-246.207 c -9.15,-33.473 -24.07,-58.2659 -44.76,-74.3792 -20.69,-16.1055 -47.82,-24.164 -81.37,-24.164 h -136.5 l 14.2,51.25 H 1534 c 13.36,0 24.47,3.1015 33.34,9.2972 8.87,6.207 14.92,15.191 18.15,26.964 l 1.16,4.239 h -61.52 c -39.35,0 -65.34,7.461 -77.95,22.383 -12.61,14.921 -14.08,39.804 -4.42,74.648 l 43.22,155.969 h 68.45 L 1512.8,237.031 c -5.26,-19.078 -5.75,-31.586 -1.45,-37.527 4.29,-5.941 15.87,-8.91 34.74,-8.91"
         style="fill:#231f20;fill-opacity:1;fill-rule:nonzero;stroke:none"
         id="path54"
         inkscape:connector-curvature="0" />
      <path
         d="m 1921.71,479.344 h 79.59 l 60.19,-344.5 h -83.93 l -10.9,82 h -155.7 l -54.2,-82 h -80.05 z m 18.42,-68.406 -88.15,-132.594 h 106.63 z"
         style="fill:#231f20;fill-opacity:1;fill-rule:nonzero;stroke:none"
         id="path56"
         inkscape:connector-curvature="0" />
      <path
         d="m 2323.54,134.844 h -133.53 c -40.35,0 -68.8,11.41 -85.33,34.234 -16.52,22.82 -19.32,54.633 -8.43,95.43 4.46,16.726 10.92,32.086 19.36,46.074 8.43,13.992 18.98,26.77 31.63,38.34 15.06,13.91 31.37,23.875 48.94,29.894 17.56,6.02 39.39,9.028 65.48,9.028 h 59.39 l 24.15,91.5 h 68.88 z m -54.93,54.25 38.07,144.25 h -41.91 c -28.1,0 -49.54,-5.672 -64.33,-17.004 -14.79,-11.34 -25.71,-30.223 -32.73,-56.645 -6.81,-25.648 -6.23,-43.824 1.74,-54.535 7.98,-10.711 25.16,-16.066 51.53,-16.066 h 47.63"
         style="fill:#231f20;fill-opacity:1;fill-rule:nonzero;stroke:none"
         id="path58"
         inkscape:connector-curvature="0" />
      <path
         d="m 2450.2,387.844 h 265.87 c 38.54,0 64.45,-7.27 77.73,-21.793 13.29,-14.531 15.76,-38.121 7.41,-70.77 l -41.07,-160.437 h -70.03 l 39.01,151.761 c 4.78,18.606 5.02,30.879 0.72,36.825 -4.3,5.941 -15.52,8.914 -33.66,8.914 h -38.86 l -51.03,-197.5 h -71.08 l 51.25,197.5 h -80.97 l -51.51,-197.5 h -70.03 l 66.25,253"
         style="fill:#231f20;fill-opacity:1;fill-rule:nonzero;stroke:none"
         id="path60"
         inkscape:connector-curvature="0" />
      <path
         d="m 2966.71,416.594 h -72.57 l 16,62.75 h 72.5 z m -71.52,-281.75 h -72.89 l 64.51,253 h 72.6 l -64.22,-253"
         style="fill:#231f20;fill-opacity:1;fill-rule:nonzero;stroke:none"
         id="path62"
         inkscape:connector-curvature="0" />
      <path
         d="m 3019.3,387.844 h 130.25 c 39.37,0 65.69,-7.153 78.97,-21.442 13.3,-14.297 15.82,-38.004 7.57,-71.121 l -39.96,-160.437 h -69.51 l 38.09,152.23 c 4.73,18.922 4.75,31.196 0.08,36.821 -4.68,5.632 -16.18,8.449 -34.51,8.449 h -55.73 l -49.73,-197.5 h -69.51 l 63.99,253"
         style="fill:#231f20;fill-opacity:1;fill-rule:nonzero;stroke:none"
         id="path64"
         inkscape:connector-curvature="0" />
      <path
         d="m 87.543,417.844 h 133.434 c 40.093,0 68.535,-11.414 85.328,-34.235 16.785,-22.828 20.097,-54.636 9.933,-95.429 -4.168,-16.735 -10.336,-32.094 -18.508,-46.082 -8.175,-13.989 -18.472,-26.77 -30.894,-38.332 -14.785,-13.914 -30.844,-23.883 -48.188,-29.899 -17.343,-6.015 -39.113,-9.023 -65.304,-9.023 H 93.9102 L 71.1172,73.3438 H 1.72266 Z m 55.812,-54.5 -35.996,-144.5 h 42.207 c 27.977,0 49.211,5.711 63.711,17.148 14.489,11.438 25.051,30.469 31.688,57.102 6.398,25.683 5.57,43.808 -2.461,54.39 -8.039,10.571 -25.238,15.86 -51.602,15.86 h -47.547"
         style="fill:#6c78af;fill-opacity:1;fill-rule:nonzero;stroke:none"
         id="path66"
         inkscape:connector-curvature="0" />
      <path
         d="m 413.492,509.344 h 68.871 l -22.793,-91.5 h 61.27 c 38.562,0 64.648,-7.309 78.269,-21.914 13.625,-14.614 16.395,-38.157 8.301,-70.649 L 567.441,164.844 h -69.914 l 38.039,152.695 c 4.329,17.359 4,29.164 -0.98,35.422 -4.981,6.25 -16.273,9.383 -33.863,9.383 h -54.969 l -49.199,-197.5 h -68.883 l 85.82,344.5"
         style="fill:#6c78af;fill-opacity:1;fill-rule:nonzero;stroke:none"
         id="path68"
         inkscape:connector-curvature="0" />
      <path
         d="m 690.52,417.844 h 133.433 c 40.102,0 68.535,-11.414 85.328,-34.235 16.789,-22.828 20.098,-54.636 9.938,-95.429 -4.168,-16.735 -10.34,-32.094 -18.504,-46.082 -8.18,-13.989 -18.485,-26.77 -30.899,-38.332 -14.789,-13.914 -30.847,-23.883 -48.191,-29.899 -17.34,-6.015 -39.109,-9.023 -65.309,-9.023 H 696.891 L 674.098,73.3438 h -69.391 z m 55.82,-54.5 -35.996,-144.5 h 42.207 c 27.976,0 49.207,5.711 63.699,17.148 14.492,11.438 25.059,30.469 31.695,57.102 6.395,25.683 5.571,43.808 -2.465,54.39 -8.039,10.571 -25.238,15.86 -51.593,15.86 H 746.34"
         style="fill:#6c78af;fill-opacity:1;fill-rule:nonzero;stroke:none"
         id="path70"
         inkscape:connector-curvature="0" />
      <path
         d="m 1024.61,509.344 h 110.15 l 25.26,-264.356 156.97,264.356 h 109.73 l -85.81,-344.5 h -73.54 l 72.91,268.336 -158.43,-268.336 h -79.69 l -26.96,271.148 -60.02,-271.148 h -76.387 l 85.817,344.5"
         style="fill:#f89c0e;fill-opacity:1;fill-rule:nonzero;stroke:none"
         id="path72"
         inkscape:connector-curvature="0" />
      <path
         d="m 1533.65,220.594 h 55.61 l 49.13,197.25 h 69.13 l -61.33,-246.207 c -8.33,-33.473 -22.6,-58.266 -42.79,-74.3792 -20.19,-16.1055 -46.95,-24.164 -80.27,-24.164 h -135.56 l 12.77,51.2502 H 1524 c 13.27,0 24.24,3.101 32.91,9.297 8.66,6.207 14.47,15.191 17.4,26.964 l 1.06,4.239 h -61.19 c -39.14,0 -65.18,7.461 -78.11,22.383 -12.94,14.921 -15.06,39.804 -6.39,74.648 l 38.86,155.969 h 68.35 l -37.57,-150.813 c -4.75,-19.078 -4.92,-31.586 -0.48,-37.527 4.43,-5.941 16.03,-8.91 34.81,-8.91"
         style="fill:#f89c0e;fill-opacity:1;fill-rule:nonzero;stroke:none"
         id="path74"
         inkscape:connector-curvature="0" />
      <path
         d="m 1901.71,509.344 h 79.6 l 66.33,-344.5 h -83.48 l -12.34,82 h -155.05 l -52.22,-82 h -79.61 z m 19.85,-68.406 -85.21,-132.594 h 106.29 z"
         style="fill:#f89c0e;fill-opacity:1;fill-rule:nonzero;stroke:none"
         id="path76"
         inkscape:connector-curvature="0" />
      <path
         d="m 2308.26,164.844 h -132.8 c -40.13,0 -68.6,11.41 -85.42,34.234 -16.81,22.82 -20.12,54.633 -9.96,95.43 4.17,16.726 10.34,32.086 18.52,46.074 8.18,13.992 18.48,26.77 30.91,38.34 14.79,13.91 30.91,23.875 48.35,29.894 17.44,6.02 39.19,9.028 65.24,9.028 h 59.31 l 22.79,91.5 h 68.88 z m -55.36,54.25 35.94,144.25 h -41.81 c -28.04,0 -49.34,-5.672 -63.92,-17.004 -14.56,-11.34 -25.15,-30.223 -31.73,-56.645 -6.39,-25.648 -5.53,-43.824 2.58,-54.535 8.11,-10.711 25.29,-16.066 51.54,-16.066 h 47.4"
         style="fill:#f89c0e;fill-opacity:1;fill-rule:nonzero;stroke:none"
         id="path78"
         inkscape:connector-curvature="0" />
      <path
         d="m 2431.38,417.844 h 265.47 c 38.49,0 64.42,-7.27 77.78,-21.793 13.35,-14.531 15.97,-38.121 7.84,-70.77 L 2742.5,164.844 h -69.65 l 37.8,151.761 c 4.64,18.606 4.79,30.879 0.46,36.825 -4.35,5.941 -15.56,8.914 -33.65,8.914 h -38.78 l -49.2,-197.5 h -70.69 l 49.2,197.5 h -80.79 l -49.2,-197.5 h -69.65 l 63.03,253"
         style="fill:#f89c0e;fill-opacity:1;fill-rule:nonzero;stroke:none"
         id="path80"
         inkscape:connector-curvature="0" />
      <path
         d="m 2947.01,446.594 h -72.5 l 15.63,62.75 h 72.5 z m -70.19,-281.75 h -72.5 l 63.02,253 h 72.5 l -63.02,-253"
         style="fill:#f89c0e;fill-opacity:1;fill-rule:nonzero;stroke:none"
         id="path82"
         inkscape:connector-curvature="0" />
      <path
         d="m 2999.64,417.844 h 130.07 c 39.31,0 65.6,-7.153 78.86,-21.442 13.26,-14.297 15.77,-38.004 7.52,-71.121 l -39.96,-160.437 h -69.14 l 37.93,152.23 c 4.71,18.922 4.73,31.196 0.06,36.821 -4.67,5.632 -16.15,8.449 -34.43,8.449 h -55.6 l -49.2,-197.5 h -69.13 l 63.02,253"
         style="fill:#f89c0e;fill-opacity:1;fill-rule:nonzero;stroke:none"
         id="path84"
         inkscape:connector-curvature="0" />
    </g>
  </g>
</svg>
